# xmcd
#
# Track frame offsets: 
#        183
#        18088
#        38380
#        54683
#        73875
#        88730
#        112848
#        130198
#        142475
#        160490
#        172313
#        189203
#        211133
#        230135
#        238575
#
# Disc length: 3386 seconds
#
# Revision: 29
# Processed by: cddbd v1.5.1PL2 Copyright (c) Steve Scherf et al.
# Submitted via: ExactAudioCopy v0.95b3
#
DISCID=d60d380f
DTITLE=Red Hot Chili Peppers - Californication
DYEAR=1999
DGENRE=Rock
TTITLE0=Around The World
TTITLE1=Parallel Universe
TTITLE2=Scar Tissue
TTITLE3=Otherside
TTITLE4=Get On Top
TTITLE5=Californication
TTITLE6=Easily
TTITLE7=Porcelain
TTITLE8=Emit Remmus
TTITLE9=I Like Dirt
TTITLE10=This Velvet Glove
TTITLE11=Savior
TTITLE12=Purple Stain
TTITLE13=Right On Time
TTITLE14=Road Trippin'
EXTD=YEAR: 1999
EXTT0=
EXTT1=
EXTT2=
EXTT3=
EXTT4=
EXTT5=
EXTT6=
EXTT7=
EXTT8=
EXTT9=
EXTT10=
EXTT11=
EXTT12=
EXTT13=
EXTT14=
PLAYORDER=
